<svg xmlns="http://www.w3.org/2000/svg" xmlns:xlink="http://www.w3.org/1999/xlink" width="60" zoomAndPan="magnify" viewBox="0 0 45 44.999999" height="60" preserveAspectRatio="xMidYMid meet" version="1.0"><defs><clipPath id="2807222ab1"><path d="M 14.992188 0 L 44.992188 0 L 44.992188 45 L 14.992188 45 Z M 14.992188 0 " clip-rule="nonzero"/></clipPath><clipPath id="9fdaf7d876"><path d="M 51.050781 57.890625 L 3.914062 57.890625 L 3.914062 -4.371094 L 29.589844 -4.371094 C 36.828125 -0.0703125 41.707031 7.824219 41.707031 16.808594 C 41.707031 19.222656 41.355469 21.554688 40.699219 23.761719 C 38.488281 31.207031 39.542969 39.730469 45.035156 45.222656 C 48.136719 48.324219 51.050781 52.828125 51.050781 57.890625 Z M 51.050781 57.890625 " clip-rule="nonzero"/></clipPath><clipPath id="ae39a976d3"><path d="M 0 0 L 43 0 L 43 45 L 0 45 Z M 0 0 " clip-rule="nonzero"/></clipPath><clipPath id="802602fbd8"><path d="M 27.703125 -7.195312 L 42.464844 53.277344 L 9.675781 61.28125 L -5.085938 0.808594 Z M 27.703125 -7.195312 " clip-rule="nonzero"/></clipPath><clipPath id="406bfea25d"><path d="M 30.105469 -7.78125 L 44.867188 52.691406 L -1.035156 63.898438 L -15.796875 3.421875 Z M 30.105469 -7.78125 " clip-rule="nonzero"/></clipPath><clipPath id="362cf9f970"><path d="M 44.878906 52.730469 L -0.914062 63.910156 L -15.679688 3.421875 L 9.261719 -2.664062 C 17.3125 -0.207031 23.925781 6.308594 26.054688 15.035156 C 26.628906 17.378906 26.839844 19.730469 26.726562 22.027344 C 26.347656 29.789062 29.390625 37.820312 36.027344 41.851562 C 39.777344 44.128906 43.675781 47.8125 44.878906 52.730469 Z M 44.878906 52.730469 " clip-rule="nonzero"/></clipPath><clipPath id="169ba47a64"><path d="M 0 0 L 35 0 L 35 45 L 0 45 Z M 0 0 " clip-rule="nonzero"/></clipPath><clipPath id="5e70f9e252"><path d="M 8.957031 -10.292969 L 34.324219 46.554688 L 1.449219 61.226562 L -23.917969 4.378906 Z M 8.957031 -10.292969 " clip-rule="nonzero"/></clipPath><clipPath id="93c0bab2ed"><path d="M 8.957031 -10.292969 L 34.324219 46.554688 L -8.824219 65.808594 L -34.191406 8.964844 Z M 8.957031 -10.292969 " clip-rule="nonzero"/></clipPath><clipPath id="196b616e46"><path d="M 34.34375 46.59375 L -8.703125 65.800781 L -34.074219 8.945312 L -10.628906 -1.519531 C -2.269531 -0.542969 5.40625 4.679688 9.066406 12.882812 C 10.046875 15.085938 10.679688 17.359375 10.980469 19.640625 C 11.996094 27.34375 16.429688 34.699219 23.683594 37.476562 C 27.78125 39.046875 32.28125 41.96875 34.34375 46.59375 Z M 34.34375 46.59375 " clip-rule="nonzero"/></clipPath><clipPath id="8dbc1c8dee"><path d="M 0 6 L 15 6 L 15 45 L 0 45 Z M 0 6 " clip-rule="nonzero"/></clipPath><clipPath id="577de7d0b5"><path d="M -7.023438 -1.175781 L 14.984375 48.136719 L -22.683594 64.945312 L -44.691406 15.632812 Z M -7.023438 -1.175781 " clip-rule="nonzero"/></clipPath><clipPath id="2e8f3fddfa"><path d="M -7.023438 -1.175781 L 14.984375 48.136719 L -22.683594 64.945312 L -44.691406 15.632812 Z M -7.023438 -1.175781 " clip-rule="nonzero"/></clipPath><clipPath id="c7fa7e94cf"><path d="M 15.003906 48.179688 L -22.347656 64.847656 L -44.363281 15.511719 L -24.019531 6.433594 C -16.765625 7.277344 -10.105469 11.8125 -6.929688 18.929688 C -6.078125 20.839844 -5.53125 22.8125 -5.269531 24.792969 C -4.386719 31.476562 -0.539062 37.859375 5.757812 40.269531 C 9.3125 41.628906 13.214844 44.167969 15.003906 48.179688 Z M 15.003906 48.179688 " clip-rule="nonzero"/></clipPath></defs><rect x="-4.5" width="54" fill="#ffffff" y="-4.5" height="53.999999" fill-opacity="1"/><rect x="-4.5" width="54" fill="#57a693" y="-4.5" height="53.999999" fill-opacity="1"/><g clip-path="url(#2807222ab1)"><g clip-path="url(#9fdaf7d876)"><path fill="#8dc3b6" d="M 44.992188 0 L 14.992188 0 L 14.992188 45 L 44.992188 45 Z M 44.992188 0 " fill-opacity="1" fill-rule="nonzero"/></g></g><g clip-path="url(#ae39a976d3)"><g clip-path="url(#802602fbd8)"><g clip-path="url(#406bfea25d)"><g clip-path="url(#362cf9f970)"><path fill="#f8eebb" d="M 40.078125 -9.78125 L -10.367188 2.53125 L 2.386719 54.78125 L 52.832031 42.46875 Z M 40.078125 -9.78125 " fill-opacity="1" fill-rule="nonzero"/></g></g></g></g><g clip-path="url(#169ba47a64)"><g clip-path="url(#5e70f9e252)"><g clip-path="url(#93c0bab2ed)"><g clip-path="url(#196b616e46)"><path fill="#ecc561" d="M 28.625 -12.773438 L -16.746094 7.472656 L 5.699219 57.773438 L 51.070312 37.527344 Z M 28.625 -12.773438 " fill-opacity="1" fill-rule="nonzero"/></g></g></g></g><g clip-path="url(#8dbc1c8dee)"><g clip-path="url(#577de7d0b5)"><g clip-path="url(#2e8f3fddfa)"><g clip-path="url(#c7fa7e94cf)"><path fill="#efa917" d="M 12.496094 0.855469 L -14.351562 12.835938 L 2.488281 50.574219 L 29.335938 38.59375 Z M 12.496094 0.855469 " fill-opacity="1" fill-rule="nonzero"/></g></g></g></g></svg>