<svg xmlns="http://www.w3.org/2000/svg" width="2560" zoomAndPan="magnify" viewBox="0 0 1920 1173" height="1564" preserveAspectRatio="xMidYMid meet" xmlns:v="https://vecta.io/nano"><style><![CDATA[.B{clip-rule:nonzero}]]></style><defs><clipPath id="A"><path d="M999.41 0h834v1173h-834zm0 0" class="B"/></clipPath><clipPath id="B"><path d="M2001.906 1493.805H690.863V-237.953h714.074c201.297 119.559 337 339.215 337 589.074 0 67.09-9.77 131.961-27.988 193.332-61.441 207.152-32.176 444.23 120.602 597.008 86.277 86.277 167.355 211.516 167.355 352.344zm0 0" class="B"/></clipPath><clipPath id="C"><path d="M445 0h1319v1173H445zm0 0" class="B"/></clipPath><clipPath id="D"><path d="M1352.508-316.5l411.043 1683.805-907.113 221.438L445.395-95.062zm0 0" class="B"/></clipPath><clipPath id="E"><path d="M1419.355-332.82l411.043 1683.805-1273.602 310.906L145.754-21.914zm0 0" class="B"/></clipPath><clipPath id="F"><path d="M1830.215 1350.242L556.57 1661.16 145.883-21.199l693.703-169.34c223.91 68.41 407.832 249.617 467.086 492.348 15.91 65.176 21.809 130.512 18.664 194.457-10.566 215.813 74.09 439.188 258.738 551.375 104.277 63.355 212.746 165.793 246.141 302.602zm0 0" class="B"/></clipPath><clipPath id="G"><path d="M0 0h1538v1173H0zm0 0" class="B"/></clipPath><clipPath id="H"><path d="M831.262-402.582l706.32 1582.801-915.027 408.328L-83.762 5.742zm0 0" class="B"/></clipPath><clipPath id="I"><path d="M831.262-402.582l706.32 1582.801-1197.207 534.25-706.316-1582.805zm0 0" class="B"/></clipPath><clipPath id="J"><path d="M1537.27 1179.523L340.023 1713.789-365.687 132.348l652.094-290.996c232.547 27.152 445.98 172.445 547.801 400.613 27.34 61.266 44.855 124.488 53.23 187.957 28.309 214.211 151.645 418.785 353.418 496.043 113.945 43.629 239.027 124.957 296.414 253.559zm0 0" class="B"/></clipPath><clipPath id="K"><path d="M0 62h1000v1111H0zm0 0" class="B"/></clipPath><clipPath id="L"><path d="M386.75-149.176l612.793 1373.223-1038.309 463.34-612.793-1373.223zm0 0" class="B"/></clipPath><clipPath id="M"><path d="M386.75-149.176l612.793 1373.223-1038.309 463.34-612.793-1373.223zm0 0" class="B"/></clipPath><clipPath id="N"><path d="M999.273 1223.449L-39.449 1686.973-651.715 314.926-85.965 62.465c201.758 23.555 386.93 149.605 475.27 347.566 23.719 53.152 38.914 108.004 46.18 163.07 24.559 185.848 131.566 363.332 306.625 430.359 98.859 37.855 207.375 108.414 257.164 219.988zm0 0" class="B"/></clipPath></defs><path fill="#fff" d="M-192-117.3h2304v1407.6H-192z"/><path fill="#57a693" d="M-192-117.3h2304v1407.6H-192z"/><g clip-path="url(#A)"><g clip-path="url(#B)"><path fill="#8dc3b6" d="M1833.41 0h-834v1173h834zm0 0"/></g></g><g clip-path="url(#C)"><g clip-path="url(#D)"><g clip-path="url(#E)"><g clip-path="url(#F)"><path fill="#f8eebb" d="M1689.418-303.684L175.152 65.969l344.379 1410.715 1514.262-369.652zm0 0"/></g></g></g></g><g clip-path="url(#G)"><g clip-path="url(#H)"><g clip-path="url(#I)"><g clip-path="url(#J)"><path fill="#ecc561" d="M1281.984-572.078L-436.52 194.793l691.805 1550.285 1718.504-766.871zm0 0"/></g></g></g></g><g clip-path="url(#K)"><g clip-path="url(#L)"><g clip-path="url(#M)"><g clip-path="url(#N)"><path fill="#efa917" d="M833.332-309.406L-413.273 246.883l579.219 1297.988 1246.605-556.293zm0 0"/></g></g></g></g></svg>