<svg xmlns="http://www.w3.org/2000/svg" width="2560" zoomAndPan="magnify" viewBox="0 0 1920 1173" height="1564" preserveAspectRatio="xMidYMid meet" xmlns:v="https://vecta.io/nano"><defs><clipPath id="A"><path d="M0 0h436.359v351.297H0zm0 0" clip-rule="nonzero"/></clipPath><clipPath id="B"><path d="M243.676 0h714.75v144h-714.75zm0 0" clip-rule="nonzero"/></clipPath><clipPath id="C"><path d="M1741 572.328h178.996V1004H1741zm0 0" clip-rule="nonzero"/></clipPath></defs><path fill="#fff" d="M-192-117.3h2304v1407.6H-192z"/><path fill="#f9e4c8" d="M-192-117.3h2304v1407.6H-192z"/><path fill="#f9cf93" d="M1373.582 1173c-.711-.805-1.145-1.625-1.672-2.398-5.582-8.191-5.969-16.836-2.332-25.867 3.77-9.383 10.637-15.969 19.063-21.133 10.73-6.559 22.527-10.02 34.914-11.305 8.906-.926 17.871-1.562 26.809-1.484 9.355.094 18.723 1.098 28.063 1.902 8.566.742 17.117 1.715 25.668 2.66l26.129 3c4.359.477 8.738.941 13.129 1.066 10.094.293 20.238.91 30.305.402 8.023-.402 16.094-1.793 23.934-3.633 8.336-1.965 15.277-6.527 19.125-14.598 2.906-6.078 2.906-12.711 1.965-19.094-1.949-13.191-4.871-26.238-6.832-39.43-3.016-20.098-.82-39.582 8.625-57.871 7.191-13.918 17.301-25.125 31.355-32.395 8.504-4.391 17.613-6.941 27.074-8.301 16.73-2.414 33.582-1.793 50.391-2.164 13.684-.312 27.383-1.113 40.727-4.578 10.777-2.785 21.027-6.773 30.012-13.559 10.883-8.227 18.043-19.051 21.258-32.176 2.289-9.324 3.727-18.863 5.289-28.359 3.246-19.758 7.453-39.195 16.109-57.453 7.484-15.773 16.902-30.121 29.906-41.887 12.848-11.629 27.691-19.543 44.805-22.93.418-.078.82-.262 1.438-.418l.25 432h-545.504zm0 0"/><g clip-path="url(#A)"><path fill="#f9cf93" d="M.184 351.27c43.406-7.016 73.152-32.617 93.789-70.34 7.137-13.043 14.168-26.164 21.98-38.797 7.719-12.48 18.559-21.652 33.863-22.48 12.816-.695 25.766-.371 38.582.492 29.207 1.965 58.25 2.293 86.996-4.426 46.699-10.902 79.355-39.676 102.719-80.41 19.234-33.555 31.129-69.879 38.836-107.457 7.332-35.664 12.746-71.742 19.164-108.094L.184-80.703V351.27zm0 0"/></g><g clip-path="url(#B)"><path fill="#faeee0" d="M958.609-21.984c-.762 14.676-4.016 28.879-8.957 42.691-25.066 70.121-93.617 116.473-168.023 113.438-25.773-1.047-49.711-8.703-71.926-21.625-11.332-6.578-22.348-13.715-33.566-20.492-4.234-2.566-8.602-4.945-12.953-7.305-17.914-9.719-36.418-10.879-55.613-4.082-14.172 5.027-27.531 11.738-40.84 18.637-19.953 10.324-39.723 21.035-60.723 29.199-19.312 7.508-39.152 12.77-59.898 14.168-32.387 2.195-63.02-4.418-90.969-20.746-53.574-31.324-90.43-76.531-109.523-135.836-.793-2.48-1.332-5.062-1.973-7.828l714.965-.219zm0 0"/></g><g clip-path="url(#C)"><path fill="#faeee0" d="M1919.996 977.68c-29.027.266-58 3.172-87.082 1.645-19.031-.996-38.07-2.109-56.238-8.691-29.148-10.559-31.863-42.391-13.16-62.305 9.566-10.191 21.395-15.301 35.27-15.504 11.707-.172 23.426-.016 35.133.074 30.023.246 48.969-18.234 58.102-44.227 10.391-29.578 9.094-60.141 8.125-90.695l-2.109-57.848c-.156-15.848-1.301-31.613-2.141-47.406-.922-17.395-.504-34.77 6.863-51.027 3.234-7.148 7.641-13.637 16.746-15.363.492-4.379.492-8.758.492-13.73-13.727 4.625-23.816 13.738-28.359 27.832-3.246 10.09-5.551 20.492-5.887 31.23-.824 26.094 2.77 51.988 3.445 78 .887 34.477 2.742 69.004-.832 103.391-1.398 13.488-5.391 26.586-11.699 38.988-10 19.668-26.129 27.977-47.418 28.16-10.199.082-20.426-.172-30.59.547-28.105 2.004-49.07 19.68-55.809 46.477-5.035 20.016 4.973 43.066 22.668 53.844 15.301 9.313 32.355 12.512 49.547 14.387 34.465 3.754 68.879 8.629 104.313 7.66.621-8.273.621-16.555.621-25.437zm0 0"/></g></svg>