<svg xmlns="http://www.w3.org/2000/svg" width="2560" zoomAndPan="magnify" viewBox="0 0 1920 1173" height="1564" preserveAspectRatio="xMidYMid meet" xmlns:v="https://vecta.io/nano"><style><![CDATA[.B{clip-rule:nonzero}.C{fill:#f9cf93}.D{fill:#faeee0}]]></style><defs><clipPath id="A"><path d="M.316 0H551.25v465.297H.316zm0 0" class="B"/></clipPath><clipPath id="B"><path d="M308.012 0h903.75v203h-903.75zm0 0" class="B"/></clipPath><clipPath id="C"><path d="M0 653.832h464.809V1173H0zm0 0" class="B"/></clipPath><clipPath id="D"><path d="M0 0h202v897.07H0zm0 0" class="B"/></clipPath><clipPath id="E"><path d="M1446.723.313H1920v550.934h-473.277zm0 0" class="B"/></clipPath><clipPath id="F"><path d="M1709 308.016h209.762V1173H1709zm0 0" class="B"/></clipPath><clipPath id="G"><path d="M1368.746 698.82h550.934V1173h-550.934zm0 0" class="B"/></clipPath><clipPath id="H"><path d="M708.23 961h903.75v209.863H708.23zm0 0" class="B"/></clipPath></defs><path fill="#fff" d="M-192-117.3h2304v1407.6H-192z"/><path fill="#d9d9d9" d="M-192-117.3h2304v1407.6H-192z"/><g clip-path="url(#A)" class="C"><path d="M.238 465.309c54.863-8.867 92.465-41.227 118.551-88.91 9.02-16.484 17.906-33.074 27.781-49.039 9.754-15.773 23.457-27.367 42.805-28.414 16.199-.883 32.566-.469 48.766.621 36.918 2.484 73.629 2.898 109.961-5.59 59.031-13.781 100.309-50.156 129.836-101.641 24.313-42.418 39.348-88.324 49.094-135.828 9.262-45.078 16.109-90.68 24.223-136.625L.238-80.703v546.012zm0 0"/></g><g clip-path="url(#B)" class="D"><path d="M1211.691-6.48c-.961 18.551-5.074 36.504-11.32 53.965-31.684 88.633-118.332 147.223-212.383 143.387-32.578-1.324-62.832-11.004-90.914-27.336-14.328-8.312-28.25-17.332-42.43-25.902-5.352-3.242-10.871-6.25-16.375-9.234-22.641-12.281-46.031-13.75-70.293-5.16-17.91 6.355-34.797 14.84-51.621 23.563-25.223 13.047-50.211 26.586-76.758 36.906-24.41 9.488-49.484 16.141-75.711 17.91-40.937 2.77-79.656-5.586-114.984-26.227-67.715-39.594-114.305-96.734-138.437-171.699-1.004-3.133-1.687-6.398-2.496-9.895l903.723-.277zm0 0"/></g><g clip-path="url(#C)" class="C"><path d="M464.816 1204.844c-8.863-54.863-41.227-92.465-88.906-118.551-16.484-9.02-33.074-17.91-49.043-27.781-15.773-9.758-27.367-23.461-28.414-42.805-.879-16.199-.465-32.57.621-48.77 2.484-36.914 2.898-73.625-5.59-109.961-13.781-59.027-50.152-100.305-101.641-129.832-42.414-24.312-88.324-39.352-135.824-49.094-45.082-9.266-90.68-16.109-136.629-24.223l-.582 551.016h546.008zm0 0"/></g><g clip-path="url(#D)" class="D"><path d="M-6.973-6.613c18.547.961 36.5 5.078 53.961 11.324 88.633 31.684 147.227 118.332 143.387 212.379-1.32 32.582-11 62.836-27.332 90.914-8.316 14.328-17.336 28.25-25.906 42.43-3.242 5.352-6.246 10.875-9.23 16.375-12.281 22.645-13.754 46.031-5.16 70.297 6.352 17.91 14.84 34.797 23.559 51.617 13.047 25.223 26.586 50.215 36.906 76.758 9.488 24.414 16.141 49.488 17.91 75.711 2.773 40.938-5.586 79.656-26.223 114.988C135.305 823.895 78.16 870.48 3.195 894.617c-3.133 1.004-6.395 1.684-9.891 2.496L-6.973-6.613zm0 0"/></g><g clip-path="url(#E)" class="C"><path d="M1446.715.234c8.863 54.863 41.223 92.465 88.906 118.551 16.484 9.02 33.074 17.91 49.039 27.781 15.773 9.758 27.367 23.461 28.418 42.805.879 16.199.465 32.57-.621 48.77-2.484 36.914-2.898 73.625 5.59 109.961 13.781 59.027 50.152 100.305 101.641 129.832 42.414 24.316 88.324 39.352 135.824 49.094 45.082 9.266 90.68 16.109 136.629 24.223l.582-551.016h-546.008zm0 0"/></g><g clip-path="url(#F)" class="D"><path d="M1918.5 1211.695c-18.551-.961-36.504-5.074-53.965-11.32-88.633-31.684-147.223-118.336-143.387-212.383 1.324-32.578 11.004-62.836 27.336-90.914 8.316-14.328 17.332-28.25 25.906-42.43 3.238-5.352 6.246-10.875 9.23-16.375 12.281-22.645 13.754-46.031 5.16-70.297-6.355-17.91-14.84-34.797-23.559-51.617-13.051-25.223-26.59-50.211-36.91-76.758-9.484-24.41-16.137-49.484-17.91-75.711-2.77-40.937 5.59-79.656 26.227-114.984 39.594-67.719 96.734-114.305 171.699-138.441 3.137-1 6.398-1.684 9.895-2.492l.277 903.723zm0 0"/></g><g clip-path="url(#G)" class="C"><path d="M1919.762 698.813c-54.863 8.863-92.465 41.223-118.551 88.906-9.02 16.484-17.91 33.074-27.781 49.039-9.758 15.773-23.461 27.367-42.805 28.418-16.199.879-32.57.465-48.77-.621-36.918-2.484-73.625-2.898-109.961 5.59-59.027 13.777-100.305 50.152-129.832 101.637-24.316 42.418-39.352 88.328-49.094 135.828-9.266 45.082-16.109 90.68-24.223 136.629l551.016.582V698.813zm0 0"/></g><g clip-path="url(#H)" class="D"><path d="M708.301 1170.602c.961-18.551 5.074-36.5 11.32-53.965 31.684-88.633 118.336-147.223 212.383-143.383 32.578 1.32 62.832 11 90.914 27.332 14.328 8.316 28.25 17.336 42.43 25.906 5.352 3.238 10.871 6.246 16.375 9.23 22.641 12.281 46.031 13.754 70.297 5.16 17.906-6.352 34.793-14.84 51.617-23.559 25.223-13.051 50.211-26.59 76.758-36.91 24.41-9.484 49.484-16.137 75.711-17.906 40.938-2.773 79.656 5.586 114.984 26.223 67.719 39.594 114.305 96.734 138.441 171.699 1 3.137 1.684 6.398 2.492 9.895l-903.723.277zm0 0"/></g></svg>