<svg xmlns="http://www.w3.org/2000/svg" xmlns:xlink="http://www.w3.org/1999/xlink" width="1125" zoomAndPan="magnify" viewBox="0 0 843.75 434.250001" height="579" preserveAspectRatio="xMidYMid meet" version="1.0"><defs><clipPath id="5ef85c93b2"><path d="M 43.953125 107.261719 L 254.28125 107.261719 L 254.28125 326.628906 L 43.953125 326.628906 Z M 43.953125 107.261719 " clip-rule="nonzero"/></clipPath><clipPath id="4a560ecceb"><path d="M 64.167969 107.261719 L 234.066406 107.261719 C 245.230469 107.261719 254.28125 116.3125 254.28125 127.480469 L 254.28125 306.023438 C 254.28125 317.1875 245.230469 326.238281 234.066406 326.238281 L 64.167969 326.238281 C 53.003906 326.238281 43.953125 317.1875 43.953125 306.023438 L 43.953125 127.480469 C 43.953125 116.3125 53.003906 107.261719 64.167969 107.261719 Z M 64.167969 107.261719 " clip-rule="nonzero"/></clipPath><clipPath id="6ee3fdb4a5"><path d="M 316.585938 107.261719 L 526.914062 107.261719 L 526.914062 326.628906 L 316.585938 326.628906 Z M 316.585938 107.261719 " clip-rule="nonzero"/></clipPath><clipPath id="ed9ff8a449"><path d="M 336.800781 107.261719 L 506.699219 107.261719 C 517.863281 107.261719 526.914062 116.3125 526.914062 127.480469 L 526.914062 306.023438 C 526.914062 317.1875 517.863281 326.238281 506.699219 326.238281 L 336.800781 326.238281 C 325.636719 326.238281 316.585938 317.1875 316.585938 306.023438 L 316.585938 127.480469 C 316.585938 116.3125 325.636719 107.261719 336.800781 107.261719 Z M 336.800781 107.261719 " clip-rule="nonzero"/></clipPath><clipPath id="82ed56bcae"><path d="M 589.21875 107.261719 L 799.546875 107.261719 L 799.546875 326.628906 L 589.21875 326.628906 Z M 589.21875 107.261719 " clip-rule="nonzero"/></clipPath><clipPath id="2863fdffdd"><path d="M 609.433594 107.261719 L 779.332031 107.261719 C 790.496094 107.261719 799.546875 116.3125 799.546875 127.480469 L 799.546875 306.023438 C 799.546875 317.1875 790.496094 326.238281 779.332031 326.238281 L 609.433594 326.238281 C 598.269531 326.238281 589.21875 317.1875 589.21875 306.023438 L 589.21875 127.480469 C 589.21875 116.3125 598.269531 107.261719 609.433594 107.261719 Z M 609.433594 107.261719 " clip-rule="nonzero"/></clipPath><clipPath id="6a7bb50e11"><path d="M 312.261719 107.261719 L 530.886719 107.261719 L 530.886719 325.886719 L 312.261719 325.886719 Z M 312.261719 107.261719 " clip-rule="nonzero"/></clipPath><clipPath id="79c3469c12"><path d="M 39.628906 107.261719 L 258.253906 107.261719 L 258.253906 325.886719 L 39.628906 325.886719 Z M 39.628906 107.261719 " clip-rule="nonzero"/></clipPath><clipPath id="40844e9914"><path d="M 585.144531 107.261719 L 803.765625 107.261719 L 803.765625 325.886719 L 585.144531 325.886719 Z M 585.144531 107.261719 " clip-rule="nonzero"/></clipPath></defs><g clip-path="url(#5ef85c93b2)"><g clip-path="url(#4a560ecceb)"><path fill="#f7f2eb" d="M 43.953125 107.261719 L 254.28125 107.261719 L 254.28125 326.628906 L 43.953125 326.628906 Z M 43.953125 107.261719 " fill-opacity="1" fill-rule="nonzero"/></g></g><g clip-path="url(#6ee3fdb4a5)"><g clip-path="url(#ed9ff8a449)"><path fill="#d0e3ff" d="M 316.585938 107.261719 L 526.914062 107.261719 L 526.914062 326.628906 L 316.585938 326.628906 Z M 316.585938 107.261719 " fill-opacity="1" fill-rule="nonzero"/></g></g><g clip-path="url(#82ed56bcae)"><g clip-path="url(#2863fdffdd)"><path fill="#081f5c" d="M 589.21875 107.261719 L 799.546875 107.261719 L 799.546875 326.628906 L 589.21875 326.628906 Z M 589.21875 107.261719 " fill-opacity="1" fill-rule="nonzero"/></g></g><g clip-path="url(#6a7bb50e11)"><path fill="#4d4d4d" d="M 506.429688 326.238281 L 337.058594 326.238281 C 336.246094 326.234375 335.4375 326.195312 334.628906 326.113281 C 333.820312 326.035156 333.019531 325.914062 332.222656 325.753906 C 331.425781 325.59375 330.640625 325.398438 329.863281 325.160156 C 329.085938 324.925781 328.324219 324.652344 327.574219 324.339844 C 326.824219 324.027344 326.089844 323.679688 325.375 323.296875 C 324.65625 322.914062 323.960938 322.496094 323.289062 322.046875 C 322.613281 321.59375 321.960938 321.109375 321.332031 320.59375 C 320.707031 320.078125 320.105469 319.535156 319.53125 318.960938 C 318.957031 318.386719 318.414062 317.785156 317.898438 317.15625 C 317.382812 316.53125 316.898438 315.878906 316.449219 315.203125 C 315.996094 314.527344 315.578125 313.832031 315.195312 313.117188 C 314.8125 312.398438 314.46875 311.667969 314.15625 310.917969 C 313.84375 310.167969 313.570312 309.402344 313.335938 308.625 C 313.097656 307.847656 312.902344 307.0625 312.742188 306.265625 C 312.585938 305.46875 312.464844 304.667969 312.382812 303.859375 C 312.304688 303.050781 312.265625 302.242188 312.261719 301.429688 L 312.261719 132.058594 C 312.265625 131.246094 312.304688 130.4375 312.386719 129.628906 C 312.464844 128.824219 312.585938 128.019531 312.746094 127.222656 C 312.902344 126.429688 313.101562 125.640625 313.339844 124.867188 C 313.574219 124.089844 313.847656 123.324219 314.160156 122.574219 C 314.46875 121.824219 314.816406 121.09375 315.199219 120.378906 C 315.582031 119.660156 316 118.964844 316.453125 118.292969 C 316.902344 117.617188 317.386719 116.964844 317.902344 116.339844 C 318.417969 115.710938 318.960938 115.109375 319.535156 114.535156 C 320.109375 113.960938 320.710938 113.417969 321.335938 112.902344 C 321.964844 112.386719 322.617188 111.902344 323.292969 111.453125 C 323.964844 111 324.660156 110.585938 325.375 110.203125 C 326.09375 109.816406 326.824219 109.472656 327.574219 109.160156 C 328.324219 108.847656 329.089844 108.574219 329.863281 108.339844 C 330.640625 108.101562 331.429688 107.90625 332.222656 107.746094 C 333.019531 107.585938 333.820312 107.464844 334.628906 107.386719 C 335.4375 107.304688 336.246094 107.265625 337.058594 107.261719 L 506.429688 107.261719 C 507.242188 107.265625 508.050781 107.304688 508.859375 107.386719 C 509.667969 107.464844 510.46875 107.585938 511.265625 107.742188 C 512.0625 107.902344 512.847656 108.101562 513.625 108.335938 C 514.402344 108.570312 515.164062 108.84375 515.917969 109.15625 C 516.667969 109.46875 517.398438 109.8125 518.117188 110.199219 C 518.832031 110.582031 519.527344 110.996094 520.203125 111.449219 C 520.878906 111.898438 521.527344 112.382812 522.15625 112.898438 C 522.785156 113.414062 523.386719 113.957031 523.960938 114.53125 C 524.535156 115.105469 525.078125 115.707031 525.59375 116.335938 C 526.109375 116.960938 526.59375 117.613281 527.046875 118.289062 C 527.496094 118.960938 527.914062 119.65625 528.296875 120.375 C 528.679688 121.089844 529.027344 121.824219 529.339844 122.574219 C 529.652344 123.324219 529.925781 124.085938 530.160156 124.863281 C 530.398438 125.640625 530.59375 126.425781 530.753906 127.222656 C 530.914062 128.019531 531.035156 128.820312 531.113281 129.628906 C 531.195312 130.4375 531.234375 131.246094 531.238281 132.058594 L 531.238281 301.429688 C 531.234375 302.242188 531.195312 303.050781 531.113281 303.859375 C 531.035156 304.667969 530.914062 305.472656 530.757812 306.265625 C 530.597656 307.0625 530.398438 307.851562 530.164062 308.628906 C 529.925781 309.40625 529.652344 310.167969 529.34375 310.917969 C 529.03125 311.667969 528.683594 312.402344 528.300781 313.121094 C 527.917969 313.835938 527.5 314.53125 527.050781 315.207031 C 526.597656 315.882812 526.113281 316.535156 525.597656 317.160156 C 525.082031 317.789062 524.539062 318.390625 523.964844 318.964844 C 523.390625 319.539062 522.789062 320.085938 522.160156 320.597656 C 521.53125 321.113281 520.882812 321.597656 520.207031 322.050781 C 519.53125 322.5 518.835938 322.917969 518.117188 323.300781 C 517.402344 323.683594 516.667969 324.03125 515.917969 324.34375 C 515.167969 324.652344 514.40625 324.929688 513.628906 325.164062 C 512.851562 325.398438 512.0625 325.597656 511.265625 325.757812 C 510.46875 325.914062 509.667969 326.035156 508.859375 326.117188 C 508.050781 326.195312 507.242188 326.234375 506.429688 326.238281 Z M 337.058594 113.246094 C 336.441406 113.246094 335.828125 113.277344 335.214844 113.339844 C 334.601562 113.402344 333.996094 113.492188 333.390625 113.613281 C 332.789062 113.734375 332.191406 113.882812 331.601562 114.0625 C 331.011719 114.242188 330.433594 114.449219 329.863281 114.6875 C 329.296875 114.921875 328.738281 115.1875 328.195312 115.476562 C 327.652344 115.769531 327.125 116.085938 326.613281 116.425781 C 326.101562 116.769531 325.609375 117.136719 325.132812 117.527344 C 324.65625 117.917969 324.203125 118.332031 323.765625 118.765625 C 323.332031 119.203125 322.917969 119.65625 322.527344 120.132812 C 322.136719 120.609375 321.769531 121.101562 321.425781 121.617188 C 321.085938 122.128906 320.769531 122.65625 320.476562 123.199219 C 320.1875 123.742188 319.921875 124.296875 319.6875 124.867188 C 319.449219 125.433594 319.242188 126.011719 319.0625 126.601562 C 318.882812 127.191406 318.734375 127.789062 318.613281 128.390625 C 318.492188 128.996094 318.402344 129.605469 318.339844 130.214844 C 318.277344 130.828125 318.246094 131.445312 318.246094 132.058594 L 318.246094 301.429688 C 318.246094 302.046875 318.277344 302.660156 318.339844 303.273438 C 318.398438 303.886719 318.492188 304.496094 318.609375 305.097656 C 318.730469 305.703125 318.882812 306.300781 319.0625 306.890625 C 319.238281 307.480469 319.449219 308.058594 319.683594 308.628906 C 319.917969 309.195312 320.183594 309.753906 320.472656 310.296875 C 320.765625 310.839844 321.082031 311.367188 321.421875 311.878906 C 321.765625 312.390625 322.132812 312.886719 322.523438 313.363281 C 322.914062 313.839844 323.324219 314.292969 323.761719 314.730469 C 324.195312 315.164062 324.652344 315.578125 325.128906 315.96875 C 325.605469 316.363281 326.097656 316.726562 326.609375 317.070312 C 327.125 317.414062 327.652344 317.730469 328.195312 318.019531 C 328.738281 318.3125 329.292969 318.574219 329.863281 318.8125 C 330.429688 319.046875 331.011719 319.257812 331.597656 319.4375 C 332.1875 319.617188 332.785156 319.765625 333.390625 319.886719 C 333.992188 320.007812 334.601562 320.097656 335.214844 320.160156 C 335.828125 320.222656 336.441406 320.253906 337.058594 320.253906 L 506.429688 320.253906 C 507.042969 320.253906 507.660156 320.222656 508.273438 320.160156 C 508.886719 320.101562 509.496094 320.007812 510.101562 319.890625 C 510.703125 319.769531 511.300781 319.617188 511.890625 319.4375 C 512.480469 319.257812 513.058594 319.050781 513.628906 318.816406 C 514.199219 318.578125 514.753906 318.316406 515.296875 318.023438 C 515.84375 317.734375 516.371094 317.417969 516.882812 317.074219 C 517.394531 316.734375 517.890625 316.367188 518.367188 315.972656 C 518.84375 315.582031 519.296875 315.171875 519.734375 314.734375 C 520.167969 314.296875 520.582031 313.84375 520.972656 313.367188 C 521.363281 312.890625 521.730469 312.394531 522.074219 311.882812 C 522.417969 311.371094 522.734375 310.84375 523.023438 310.300781 C 523.316406 309.753906 523.578125 309.199219 523.816406 308.628906 C 524.050781 308.058594 524.257812 307.480469 524.4375 306.890625 C 524.617188 306.300781 524.769531 305.703125 524.886719 305.101562 C 525.007812 304.496094 525.101562 303.886719 525.160156 303.273438 C 525.222656 302.660156 525.253906 302.046875 525.253906 301.429688 L 525.253906 132.058594 C 525.253906 131.445312 525.222656 130.828125 525.160156 130.214844 C 525.097656 129.601562 525.007812 128.996094 524.886719 128.390625 C 524.765625 127.785156 524.613281 127.1875 524.4375 126.601562 C 524.257812 126.011719 524.046875 125.429688 523.8125 124.863281 C 523.574219 124.292969 523.3125 123.738281 523.019531 123.195312 C 522.730469 122.652344 522.414062 122.125 522.070312 121.613281 C 521.726562 121.101562 521.359375 120.605469 520.96875 120.128906 C 520.578125 119.652344 520.164062 119.199219 519.730469 118.761719 C 519.292969 118.328125 518.835938 117.914062 518.363281 117.523438 C 517.886719 117.132812 517.390625 116.765625 516.878906 116.421875 C 516.367188 116.082031 515.839844 115.765625 515.296875 115.472656 C 514.75 115.183594 514.195312 114.917969 513.625 114.683594 C 513.058594 114.449219 512.476562 114.242188 511.890625 114.0625 C 511.300781 113.882812 510.703125 113.730469 510.097656 113.613281 C 509.492188 113.492188 508.886719 113.398438 508.273438 113.339844 C 507.660156 113.277344 507.042969 113.246094 506.429688 113.246094 Z M 337.058594 113.246094 " fill-opacity="1" fill-rule="nonzero"/></g><g clip-path="url(#79c3469c12)"><path fill="#4d4d4d" d="M 233.796875 326.238281 L 64.425781 326.238281 C 63.613281 326.234375 62.804688 326.195312 61.996094 326.113281 C 61.1875 326.035156 60.386719 325.914062 59.589844 325.753906 C 58.792969 325.59375 58.007812 325.398438 57.230469 325.160156 C 56.453125 324.925781 55.6875 324.652344 54.9375 324.339844 C 54.1875 324.027344 53.457031 323.679688 52.742188 323.296875 C 52.023438 322.914062 51.328125 322.496094 50.652344 322.046875 C 49.980469 321.59375 49.328125 321.109375 48.699219 320.59375 C 48.074219 320.078125 47.472656 319.535156 46.898438 318.960938 C 46.324219 318.386719 45.78125 317.785156 45.265625 317.15625 C 44.75 316.53125 44.265625 315.878906 43.816406 315.203125 C 43.363281 314.527344 42.945312 313.832031 42.5625 313.117188 C 42.179688 312.398438 41.832031 311.667969 41.523438 310.917969 C 41.210938 310.167969 40.9375 309.402344 40.703125 308.625 C 40.464844 307.847656 40.269531 307.0625 40.109375 306.265625 C 39.949219 305.46875 39.832031 304.667969 39.75 303.859375 C 39.671875 303.050781 39.628906 302.242188 39.628906 301.429688 L 39.628906 132.058594 C 39.632812 131.246094 39.671875 130.4375 39.753906 129.628906 C 39.832031 128.824219 39.953125 128.019531 40.113281 127.222656 C 40.269531 126.429688 40.46875 125.640625 40.707031 124.867188 C 40.941406 124.089844 41.214844 123.324219 41.527344 122.574219 C 41.835938 121.824219 42.183594 121.09375 42.566406 120.378906 C 42.949219 119.660156 43.367188 118.964844 43.820312 118.292969 C 44.269531 117.617188 44.753906 116.964844 45.269531 116.339844 C 45.785156 115.710938 46.328125 115.109375 46.902344 114.535156 C 47.476562 113.960938 48.078125 113.417969 48.703125 112.902344 C 49.332031 112.386719 49.984375 111.902344 50.65625 111.453125 C 51.332031 111 52.027344 110.585938 52.742188 110.203125 C 53.460938 109.816406 54.191406 109.472656 54.941406 109.160156 C 55.691406 108.847656 56.457031 108.574219 57.230469 108.339844 C 58.007812 108.101562 58.792969 107.90625 59.589844 107.746094 C 60.386719 107.585938 61.1875 107.464844 61.996094 107.386719 C 62.804688 107.304688 63.613281 107.265625 64.425781 107.261719 L 233.796875 107.261719 C 234.609375 107.265625 235.417969 107.304688 236.226562 107.386719 C 237.035156 107.464844 237.835938 107.585938 238.632812 107.742188 C 239.429688 107.902344 240.214844 108.101562 240.992188 108.335938 C 241.769531 108.570312 242.53125 108.84375 243.28125 109.15625 C 244.03125 109.46875 244.765625 109.8125 245.480469 110.199219 C 246.199219 110.582031 246.894531 110.996094 247.570312 111.449219 C 248.246094 111.898438 248.894531 112.382812 249.523438 112.898438 C 250.152344 113.414062 250.753906 113.957031 251.328125 114.53125 C 251.902344 115.105469 252.445312 115.707031 252.960938 116.335938 C 253.476562 116.960938 253.960938 117.613281 254.410156 118.289062 C 254.863281 118.960938 255.28125 119.65625 255.664062 120.375 C 256.046875 121.089844 256.394531 121.824219 256.707031 122.574219 C 257.015625 123.324219 257.292969 124.085938 257.527344 124.863281 C 257.765625 125.640625 257.960938 126.425781 258.121094 127.222656 C 258.28125 128.019531 258.398438 128.820312 258.480469 129.628906 C 258.5625 130.4375 258.601562 131.246094 258.601562 132.058594 L 258.601562 301.429688 C 258.601562 302.242188 258.5625 303.050781 258.480469 303.859375 C 258.402344 304.667969 258.28125 305.472656 258.125 306.265625 C 257.964844 307.0625 257.765625 307.851562 257.53125 308.628906 C 257.292969 309.40625 257.019531 310.167969 256.710938 310.917969 C 256.398438 311.667969 256.050781 312.402344 255.667969 313.121094 C 255.285156 313.835938 254.867188 314.53125 254.417969 315.207031 C 253.964844 315.882812 253.480469 316.535156 252.964844 317.160156 C 252.449219 317.789062 251.90625 318.390625 251.332031 318.964844 C 250.757812 319.539062 250.15625 320.085938 249.527344 320.597656 C 248.898438 321.113281 248.25 321.597656 247.574219 322.050781 C 246.898438 322.5 246.203125 322.917969 245.484375 323.300781 C 244.769531 323.683594 244.035156 324.03125 243.285156 324.34375 C 242.535156 324.652344 241.773438 324.929688 240.996094 325.164062 C 240.21875 325.398438 239.429688 325.597656 238.632812 325.757812 C 237.835938 325.914062 237.035156 326.035156 236.226562 326.117188 C 235.417969 326.195312 234.609375 326.234375 233.796875 326.238281 Z M 64.425781 113.246094 C 63.808594 113.246094 63.195312 113.277344 62.582031 113.339844 C 61.96875 113.402344 61.363281 113.492188 60.757812 113.613281 C 60.152344 113.734375 59.558594 113.882812 58.96875 114.0625 C 58.378906 114.242188 57.800781 114.449219 57.230469 114.6875 C 56.664062 114.921875 56.105469 115.1875 55.5625 115.476562 C 55.019531 115.769531 54.492188 116.085938 53.980469 116.425781 C 53.46875 116.769531 52.976562 117.136719 52.5 117.527344 C 52.023438 117.917969 51.566406 118.332031 51.132812 118.765625 C 50.699219 119.203125 50.285156 119.65625 49.894531 120.132812 C 49.503906 120.609375 49.136719 121.101562 48.792969 121.617188 C 48.453125 122.128906 48.132812 122.65625 47.84375 123.199219 C 47.554688 123.742188 47.289062 124.296875 47.054688 124.867188 C 46.816406 125.433594 46.609375 126.011719 46.429688 126.601562 C 46.25 127.191406 46.101562 127.789062 45.980469 128.390625 C 45.859375 128.996094 45.769531 129.605469 45.707031 130.214844 C 45.644531 130.828125 45.613281 131.445312 45.613281 132.058594 L 45.613281 301.429688 C 45.613281 302.046875 45.644531 302.660156 45.707031 303.273438 C 45.765625 303.886719 45.855469 304.496094 45.976562 305.097656 C 46.097656 305.703125 46.25 306.300781 46.425781 306.890625 C 46.605469 307.480469 46.8125 308.058594 47.050781 308.628906 C 47.285156 309.195312 47.550781 309.753906 47.839844 310.296875 C 48.128906 310.839844 48.445312 311.367188 48.789062 311.878906 C 49.132812 312.390625 49.5 312.886719 49.890625 313.363281 C 50.28125 313.839844 50.691406 314.292969 51.128906 314.730469 C 51.5625 315.164062 52.019531 315.578125 52.496094 315.96875 C 52.972656 316.363281 53.464844 316.726562 53.976562 317.070312 C 54.488281 317.414062 55.019531 317.730469 55.5625 318.019531 C 56.105469 318.3125 56.660156 318.574219 57.230469 318.8125 C 57.796875 319.046875 58.378906 319.257812 58.964844 319.4375 C 59.554688 319.617188 60.152344 319.765625 60.757812 319.886719 C 61.359375 320.007812 61.96875 320.097656 62.582031 320.160156 C 63.195312 320.222656 63.808594 320.253906 64.425781 320.253906 L 233.796875 320.253906 C 234.410156 320.253906 235.027344 320.222656 235.640625 320.160156 C 236.253906 320.101562 236.863281 320.007812 237.464844 319.890625 C 238.070312 319.769531 238.667969 319.617188 239.257812 319.4375 C 239.847656 319.257812 240.425781 319.050781 240.996094 318.816406 C 241.566406 318.578125 242.121094 318.316406 242.664062 318.023438 C 243.207031 317.734375 243.738281 317.417969 244.25 317.074219 C 244.761719 316.734375 245.257812 316.367188 245.730469 315.972656 C 246.207031 315.582031 246.664062 315.171875 247.101562 314.734375 C 247.535156 314.296875 247.949219 313.84375 248.339844 313.367188 C 248.730469 312.890625 249.097656 312.394531 249.441406 311.882812 C 249.785156 311.371094 250.101562 310.84375 250.390625 310.300781 C 250.683594 309.753906 250.945312 309.199219 251.183594 308.628906 C 251.417969 308.058594 251.625 307.480469 251.804688 306.890625 C 251.984375 306.300781 252.132812 305.703125 252.253906 305.101562 C 252.375 304.496094 252.46875 303.886719 252.527344 303.273438 C 252.589844 302.660156 252.621094 302.046875 252.621094 301.429688 L 252.621094 132.058594 C 252.621094 131.445312 252.589844 130.828125 252.527344 130.214844 C 252.464844 129.601562 252.375 128.996094 252.253906 128.390625 C 252.132812 127.785156 251.980469 127.1875 251.800781 126.601562 C 251.621094 126.011719 251.414062 125.429688 251.179688 124.863281 C 250.941406 124.292969 250.679688 123.738281 250.386719 123.195312 C 250.097656 122.652344 249.78125 122.125 249.4375 121.613281 C 249.09375 121.101562 248.726562 120.605469 248.335938 120.128906 C 247.945312 119.652344 247.53125 119.199219 247.097656 118.761719 C 246.660156 118.328125 246.203125 117.914062 245.726562 117.523438 C 245.253906 117.132812 244.757812 116.765625 244.246094 116.421875 C 243.734375 116.082031 243.207031 115.765625 242.660156 115.472656 C 242.117188 115.183594 241.5625 114.917969 240.992188 114.683594 C 240.425781 114.449219 239.84375 114.242188 239.253906 114.0625 C 238.667969 113.882812 238.070312 113.730469 237.464844 113.613281 C 236.859375 113.492188 236.253906 113.398438 235.640625 113.339844 C 235.027344 113.277344 234.410156 113.246094 233.796875 113.246094 Z M 64.425781 113.246094 " fill-opacity="1" fill-rule="nonzero"/></g><g clip-path="url(#40844e9914)"><path fill="#4d4d4d" d="M 779.308594 326.238281 L 609.941406 326.238281 C 609.128906 326.234375 608.316406 326.195312 607.511719 326.113281 C 606.703125 326.035156 605.898438 325.914062 605.101562 325.753906 C 604.308594 325.59375 603.519531 325.398438 602.742188 325.160156 C 601.96875 324.925781 601.203125 324.652344 600.453125 324.339844 C 599.703125 324.027344 598.96875 323.679688 598.253906 323.296875 C 597.539062 322.914062 596.84375 322.496094 596.167969 322.046875 C 595.492188 321.59375 594.84375 321.109375 594.214844 320.59375 C 593.585938 320.078125 592.984375 319.535156 592.414062 318.960938 C 591.839844 318.386719 591.292969 317.785156 590.777344 317.15625 C 590.261719 316.53125 589.78125 315.878906 589.328125 315.203125 C 588.878906 314.527344 588.460938 313.832031 588.078125 313.117188 C 587.695312 312.398438 587.347656 311.667969 587.035156 310.917969 C 586.726562 310.167969 586.453125 309.402344 586.214844 308.625 C 585.980469 307.847656 585.78125 307.0625 585.625 306.265625 C 585.464844 305.46875 585.34375 304.667969 585.265625 303.859375 C 585.183594 303.050781 585.144531 302.242188 585.144531 301.429688 L 585.144531 132.058594 C 585.144531 131.246094 585.1875 130.4375 585.265625 129.628906 C 585.347656 128.824219 585.46875 128.019531 585.625 127.222656 C 585.785156 126.429688 585.984375 125.640625 586.21875 124.867188 C 586.457031 124.089844 586.730469 123.324219 587.039062 122.574219 C 587.351562 121.824219 587.699219 121.09375 588.082031 120.378906 C 588.464844 119.660156 588.882812 118.964844 589.332031 118.292969 C 589.785156 117.617188 590.265625 116.964844 590.78125 116.339844 C 591.296875 115.710938 591.84375 115.109375 592.417969 114.535156 C 592.992188 113.960938 593.589844 113.417969 594.21875 112.902344 C 594.847656 112.386719 595.496094 111.902344 596.171875 111.453125 C 596.847656 111 597.542969 110.585938 598.257812 110.203125 C 598.972656 109.816406 599.707031 109.472656 600.457031 109.160156 C 601.207031 108.847656 601.96875 108.574219 602.746094 108.339844 C 603.523438 108.101562 604.308594 107.90625 605.105469 107.746094 C 605.902344 107.585938 606.703125 107.464844 607.511719 107.386719 C 608.320312 107.304688 609.128906 107.265625 609.941406 107.261719 L 779.308594 107.261719 C 780.121094 107.265625 780.929688 107.304688 781.738281 107.386719 C 782.546875 107.464844 783.351562 107.585938 784.144531 107.742188 C 784.941406 107.902344 785.730469 108.101562 786.507812 108.335938 C 787.285156 108.570312 788.046875 108.84375 788.796875 109.15625 C 789.546875 109.46875 790.28125 109.8125 790.996094 110.199219 C 791.710938 110.582031 792.410156 110.996094 793.082031 111.449219 C 793.757812 111.898438 794.410156 112.382812 795.039062 112.898438 C 795.664062 113.414062 796.265625 113.957031 796.839844 114.53125 C 797.414062 115.105469 797.960938 115.707031 798.476562 116.335938 C 798.992188 116.960938 799.472656 117.613281 799.925781 118.289062 C 800.378906 118.960938 800.792969 119.65625 801.179688 120.375 C 801.5625 121.089844 801.910156 121.824219 802.21875 122.574219 C 802.53125 123.324219 802.804688 124.085938 803.042969 124.863281 C 803.277344 125.640625 803.476562 126.425781 803.636719 127.222656 C 803.792969 128.019531 803.914062 128.820312 803.996094 129.628906 C 804.074219 130.4375 804.117188 131.246094 804.117188 132.058594 L 804.117188 301.429688 C 804.117188 302.242188 804.078125 303.050781 803.996094 303.859375 C 803.914062 304.667969 803.796875 305.472656 803.636719 306.265625 C 803.476562 307.0625 803.28125 307.851562 803.042969 308.628906 C 802.808594 309.40625 802.535156 310.167969 802.222656 310.917969 C 801.914062 311.667969 801.566406 312.402344 801.183594 313.121094 C 800.800781 313.835938 800.382812 314.53125 799.929688 315.207031 C 799.480469 315.882812 798.996094 316.535156 798.480469 317.160156 C 797.964844 317.789062 797.417969 318.390625 796.84375 318.964844 C 796.269531 319.539062 795.667969 320.085938 795.042969 320.597656 C 794.414062 321.113281 793.761719 321.597656 793.085938 322.050781 C 792.410156 322.5 791.714844 322.917969 791 323.300781 C 790.285156 323.683594 789.550781 324.03125 788.800781 324.34375 C 788.050781 324.652344 787.285156 324.929688 786.507812 325.164062 C 785.730469 325.398438 784.945312 325.597656 784.148438 325.757812 C 783.351562 325.914062 782.546875 326.035156 781.742188 326.117188 C 780.933594 326.195312 780.121094 326.234375 779.308594 326.238281 Z M 609.941406 113.246094 C 609.324219 113.246094 608.710938 113.277344 608.097656 113.339844 C 607.484375 113.402344 606.875 113.492188 606.273438 113.613281 C 605.667969 113.734375 605.070312 113.882812 604.484375 114.0625 C 603.894531 114.242188 603.316406 114.449219 602.746094 114.6875 C 602.175781 114.921875 601.621094 115.1875 601.078125 115.476562 C 600.535156 115.769531 600.007812 116.085938 599.496094 116.425781 C 598.984375 116.769531 598.488281 117.136719 598.015625 117.527344 C 597.539062 117.917969 597.082031 118.332031 596.648438 118.765625 C 596.210938 119.203125 595.796875 119.65625 595.40625 120.132812 C 595.015625 120.609375 594.648438 121.101562 594.308594 121.617188 C 593.964844 122.128906 593.648438 122.65625 593.359375 123.199219 C 593.066406 123.742188 592.804688 124.296875 592.566406 124.867188 C 592.332031 125.433594 592.125 126.011719 591.945312 126.601562 C 591.765625 127.191406 591.613281 127.789062 591.492188 128.390625 C 591.371094 128.996094 591.28125 129.605469 591.21875 130.214844 C 591.160156 130.828125 591.128906 131.445312 591.128906 132.058594 L 591.128906 301.429688 C 591.128906 302.046875 591.160156 302.660156 591.21875 303.273438 C 591.28125 303.886719 591.371094 304.496094 591.492188 305.097656 C 591.613281 305.703125 591.761719 306.300781 591.941406 306.890625 C 592.121094 307.480469 592.328125 308.058594 592.5625 308.628906 C 592.800781 309.195312 593.0625 309.753906 593.355469 310.296875 C 593.644531 310.839844 593.960938 311.367188 594.304688 311.878906 C 594.644531 312.390625 595.011719 312.886719 595.402344 313.363281 C 595.792969 313.839844 596.207031 314.292969 596.644531 314.730469 C 597.078125 315.164062 597.535156 315.578125 598.011719 315.96875 C 598.484375 316.363281 598.980469 316.726562 599.492188 317.070312 C 600.003906 317.414062 600.53125 317.730469 601.074219 318.019531 C 601.617188 318.3125 602.175781 318.574219 602.742188 318.8125 C 603.3125 319.046875 603.890625 319.257812 604.480469 319.4375 C 605.070312 319.617188 605.667969 319.765625 606.269531 319.886719 C 606.875 320.007812 607.484375 320.097656 608.097656 320.160156 C 608.710938 320.222656 609.324219 320.253906 609.941406 320.253906 L 779.308594 320.253906 C 779.925781 320.253906 780.539062 320.222656 781.152344 320.160156 C 781.765625 320.101562 782.375 320.007812 782.980469 319.890625 C 783.585938 319.769531 784.183594 319.617188 784.773438 319.4375 C 785.363281 319.257812 785.941406 319.050781 786.511719 318.816406 C 787.078125 318.578125 787.636719 318.316406 788.179688 318.023438 C 788.722656 317.734375 789.25 317.417969 789.761719 317.074219 C 790.277344 316.734375 790.769531 316.367188 791.246094 315.972656 C 791.722656 315.582031 792.179688 315.171875 792.613281 314.734375 C 793.050781 314.296875 793.464844 313.84375 793.855469 313.367188 C 794.246094 312.890625 794.613281 312.394531 794.957031 311.882812 C 795.296875 311.371094 795.613281 310.84375 795.90625 310.300781 C 796.195312 309.753906 796.460938 309.199219 796.695312 308.628906 C 796.933594 308.058594 797.140625 307.480469 797.320312 306.890625 C 797.5 306.300781 797.648438 305.703125 797.769531 305.101562 C 797.890625 304.496094 797.980469 303.886719 798.042969 303.273438 C 798.101562 302.660156 798.132812 302.046875 798.132812 301.429688 L 798.132812 132.058594 C 798.132812 131.445312 798.101562 130.828125 798.039062 130.214844 C 797.980469 129.601562 797.886719 128.996094 797.765625 128.390625 C 797.644531 127.785156 797.496094 127.1875 797.316406 126.601562 C 797.136719 126.011719 796.929688 125.429688 796.691406 124.863281 C 796.457031 124.292969 796.191406 123.738281 795.902344 123.195312 C 795.609375 122.652344 795.292969 122.125 794.953125 121.613281 C 794.609375 121.101562 794.242188 120.605469 793.851562 120.128906 C 793.460938 119.652344 793.046875 119.199219 792.609375 118.761719 C 792.175781 118.328125 791.71875 117.914062 791.242188 117.523438 C 790.765625 117.132812 790.273438 116.765625 789.757812 116.421875 C 789.246094 116.082031 788.71875 115.765625 788.175781 115.472656 C 787.632812 115.183594 787.078125 114.917969 786.507812 114.683594 C 785.9375 114.449219 785.359375 114.242188 784.769531 114.0625 C 784.179688 113.882812 783.582031 113.730469 782.980469 113.613281 C 782.375 113.492188 781.765625 113.398438 781.152344 113.339844 C 780.539062 113.277344 779.925781 113.246094 779.308594 113.246094 Z M 609.941406 113.246094 " fill-opacity="1" fill-rule="nonzero"/></g></svg>