<svg xmlns="http://www.w3.org/2000/svg" xmlns:xlink="http://www.w3.org/1999/xlink" width="1125" zoomAndPan="magnify" viewBox="0 0 843.75 262.499992" height="350" preserveAspectRatio="xMidYMid meet" version="1.0"><defs><clipPath id="8b8d5dcbb5"><path d="M 326.214844 26.199219 L 517.285156 26.199219 L 517.285156 225.476562 L 326.214844 225.476562 Z M 326.214844 26.199219 " clip-rule="nonzero"/></clipPath><clipPath id="09b0b50756"><path d="M 341.9375 26.199219 L 501.5625 26.199219 C 510.246094 26.199219 517.285156 33.238281 517.285156 41.921875 L 517.285156 209.402344 C 517.285156 218.082031 510.246094 225.121094 501.5625 225.121094 L 341.9375 225.121094 C 333.253906 225.121094 326.214844 218.082031 326.214844 209.402344 L 326.214844 41.921875 C 326.214844 33.238281 333.253906 26.199219 341.9375 26.199219 Z M 341.9375 26.199219 " clip-rule="nonzero"/></clipPath><clipPath id="fb21299257"><path d="M 322.289062 26.199219 L 521.015625 26.199219 L 521.015625 224.925781 L 322.289062 224.925781 Z M 322.289062 26.199219 " clip-rule="nonzero"/></clipPath><clipPath id="8abce2650b"><path d="M 30.804688 26.199219 L 221.871094 26.199219 L 221.871094 225.476562 L 30.804688 225.476562 Z M 30.804688 26.199219 " clip-rule="nonzero"/></clipPath><clipPath id="b455b41990"><path d="M 46.523438 26.199219 L 206.152344 26.199219 C 214.835938 26.199219 221.871094 33.238281 221.871094 41.921875 L 221.871094 209.402344 C 221.871094 218.082031 214.835938 225.121094 206.152344 225.121094 L 46.523438 225.121094 C 37.84375 225.121094 30.804688 218.082031 30.804688 209.402344 L 30.804688 41.921875 C 30.804688 33.238281 37.84375 26.199219 46.523438 26.199219 Z M 46.523438 26.199219 " clip-rule="nonzero"/></clipPath><clipPath id="4b53addd82"><path d="M 26.878906 26.199219 L 225.601562 26.199219 L 225.601562 224.925781 L 26.878906 224.925781 Z M 26.878906 26.199219 " clip-rule="nonzero"/></clipPath><clipPath id="5fe1a8f367"><path d="M 621.480469 26.199219 L 812.546875 26.199219 L 812.546875 225.476562 L 621.480469 225.476562 Z M 621.480469 26.199219 " clip-rule="nonzero"/></clipPath><clipPath id="6d5e6015c2"><path d="M 637.199219 26.199219 L 796.828125 26.199219 C 805.507812 26.199219 812.546875 33.238281 812.546875 41.921875 L 812.546875 209.402344 C 812.546875 218.082031 805.507812 225.121094 796.828125 225.121094 L 637.199219 225.121094 C 628.515625 225.121094 621.480469 218.082031 621.480469 209.402344 L 621.480469 41.921875 C 621.480469 33.238281 628.515625 26.199219 637.199219 26.199219 Z M 637.199219 26.199219 " clip-rule="nonzero"/></clipPath><clipPath id="54716c0b67"><path d="M 617.777344 26.199219 L 816.503906 26.199219 L 816.503906 224.925781 L 617.777344 224.925781 Z M 617.777344 26.199219 " clip-rule="nonzero"/></clipPath></defs><g clip-path="url(#8b8d5dcbb5)"><g clip-path="url(#09b0b50756)"><path fill="#d0e3ff" d="M 326.214844 26.199219 L 517.285156 26.199219 L 517.285156 225.476562 L 326.214844 225.476562 Z M 326.214844 26.199219 " fill-opacity="1" fill-rule="nonzero"/></g></g><g clip-path="url(#fb21299257)"><path fill="#4d4d4d" d="M 498.675781 225.121094 L 344.816406 225.121094 C 344.078125 225.121094 343.339844 225.082031 342.605469 225.011719 C 341.875 224.9375 341.144531 224.828125 340.421875 224.683594 C 339.699219 224.539062 338.984375 224.359375 338.277344 224.144531 C 337.570312 223.929688 336.878906 223.679688 336.195312 223.398438 C 335.515625 223.113281 334.851562 222.800781 334.199219 222.449219 C 333.550781 222.101562 332.917969 221.722656 332.304688 221.3125 C 331.691406 220.902344 331.097656 220.464844 330.527344 219.996094 C 329.960938 219.527344 329.414062 219.03125 328.890625 218.511719 C 328.371094 217.988281 327.875 217.441406 327.40625 216.871094 C 326.941406 216.300781 326.5 215.710938 326.089844 215.097656 C 325.679688 214.484375 325.300781 213.851562 324.953125 213.203125 C 324.605469 212.550781 324.292969 211.886719 324.007812 211.203125 C 323.726562 210.523438 323.476562 209.828125 323.261719 209.121094 C 323.050781 208.417969 322.871094 207.703125 322.726562 206.980469 C 322.582031 206.253906 322.472656 205.527344 322.398438 204.792969 C 322.328125 204.058594 322.289062 203.324219 322.289062 202.585938 L 322.289062 48.726562 C 322.289062 47.988281 322.328125 47.253906 322.402344 46.519531 C 322.472656 45.785156 322.582031 45.054688 322.726562 44.332031 C 322.871094 43.609375 323.050781 42.894531 323.265625 42.191406 C 323.480469 41.484375 323.730469 40.792969 324.011719 40.109375 C 324.292969 39.429688 324.609375 38.761719 324.957031 38.113281 C 325.304688 37.460938 325.683594 36.832031 326.09375 36.21875 C 326.503906 35.605469 326.945312 35.011719 327.410156 34.445312 C 327.878906 33.875 328.375 33.328125 328.894531 32.804688 C 329.417969 32.285156 329.960938 31.789062 330.53125 31.320312 C 331.101562 30.855469 331.695312 30.414062 332.308594 30.003906 C 332.921875 29.59375 333.550781 29.214844 334.203125 28.867188 C 334.851562 28.519531 335.519531 28.207031 336.199219 27.921875 C 336.878906 27.640625 337.574219 27.390625 338.28125 27.175781 C 338.984375 26.960938 339.699219 26.78125 340.421875 26.636719 C 341.144531 26.492188 341.875 26.382812 342.609375 26.3125 C 343.339844 26.238281 344.078125 26.199219 344.816406 26.199219 L 498.675781 26.199219 C 499.410156 26.199219 500.148438 26.238281 500.882812 26.308594 C 501.617188 26.382812 502.34375 26.492188 503.066406 26.636719 C 503.792969 26.78125 504.507812 26.960938 505.210938 27.175781 C 505.917969 27.386719 506.613281 27.636719 507.292969 27.917969 C 507.972656 28.203125 508.640625 28.515625 509.289062 28.863281 C 509.941406 29.214844 510.574219 29.59375 511.1875 30 C 511.800781 30.410156 512.390625 30.851562 512.960938 31.320312 C 513.53125 31.785156 514.078125 32.28125 514.601562 32.800781 C 515.121094 33.324219 515.617188 33.871094 516.085938 34.441406 C 516.554688 35.011719 516.992188 35.601562 517.402344 36.214844 C 517.8125 36.828125 518.191406 37.460938 518.539062 38.109375 C 518.886719 38.761719 519.203125 39.425781 519.488281 40.109375 C 519.769531 40.789062 520.019531 41.480469 520.234375 42.1875 C 520.449219 42.894531 520.628906 43.609375 520.773438 44.332031 C 520.917969 45.054688 521.027344 45.785156 521.097656 46.519531 C 521.171875 47.25 521.210938 47.988281 521.210938 48.726562 L 521.210938 202.585938 C 521.210938 203.324219 521.171875 204.058594 521.101562 204.792969 C 521.027344 205.527344 520.917969 206.257812 520.773438 206.980469 C 520.628906 207.703125 520.449219 208.417969 520.234375 209.125 C 520.019531 209.832031 519.773438 210.523438 519.488281 211.207031 C 519.207031 211.886719 518.890625 212.554688 518.542969 213.203125 C 518.195312 213.855469 517.816406 214.488281 517.40625 215.101562 C 516.996094 215.714844 516.558594 216.304688 516.089844 216.875 C 515.621094 217.445312 515.125 217.992188 514.605469 218.515625 C 514.082031 219.035156 513.535156 219.53125 512.964844 220 C 512.394531 220.46875 511.804688 220.90625 511.191406 221.316406 C 510.578125 221.726562 509.945312 222.105469 509.292969 222.453125 C 508.644531 222.800781 507.976562 223.117188 507.296875 223.402344 C 506.613281 223.683594 505.921875 223.933594 505.214844 224.144531 C 504.507812 224.359375 503.792969 224.539062 503.070312 224.683594 C 502.347656 224.828125 501.617188 224.9375 500.882812 225.011719 C 500.148438 225.082031 499.410156 225.121094 498.675781 225.121094 Z M 344.816406 31.636719 C 344.253906 31.636719 343.695312 31.664062 343.140625 31.71875 C 342.582031 31.777344 342.03125 31.859375 341.484375 31.96875 C 340.933594 32.078125 340.390625 32.214844 339.855469 32.378906 C 339.320312 32.539062 338.796875 32.730469 338.277344 32.945312 C 337.761719 33.160156 337.257812 33.398438 336.765625 33.660156 C 336.269531 33.925781 335.792969 34.214844 335.328125 34.523438 C 334.863281 34.835938 334.414062 35.167969 333.980469 35.523438 C 333.546875 35.878906 333.132812 36.253906 332.738281 36.648438 C 332.34375 37.046875 331.96875 37.460938 331.613281 37.890625 C 331.257812 38.324219 330.925781 38.773438 330.613281 39.238281 C 330.304688 39.703125 330.015625 40.183594 329.75 40.675781 C 329.488281 41.167969 329.246094 41.671875 329.035156 42.191406 C 328.820312 42.707031 328.628906 43.234375 328.46875 43.769531 C 328.304688 44.304688 328.167969 44.84375 328.058594 45.394531 C 327.949219 45.941406 327.863281 46.496094 327.808594 47.050781 C 327.753906 47.609375 327.726562 48.164062 327.722656 48.726562 L 327.722656 202.585938 C 327.726562 203.144531 327.753906 203.703125 327.808594 204.261719 C 327.863281 204.816406 327.945312 205.371094 328.054688 205.917969 C 328.164062 206.46875 328.300781 207.007812 328.464844 207.546875 C 328.628906 208.082031 328.816406 208.605469 329.03125 209.125 C 329.246094 209.640625 329.484375 210.144531 329.746094 210.640625 C 330.011719 211.132812 330.300781 211.613281 330.609375 212.078125 C 330.921875 212.542969 331.253906 212.992188 331.609375 213.425781 C 331.964844 213.859375 332.339844 214.273438 332.734375 214.667969 C 333.128906 215.0625 333.542969 215.4375 333.976562 215.792969 C 334.410156 216.148438 334.859375 216.484375 335.324219 216.792969 C 335.789062 217.105469 336.269531 217.394531 336.761719 217.65625 C 337.253906 217.921875 337.761719 218.160156 338.277344 218.375 C 338.792969 218.589844 339.320312 218.78125 339.855469 218.941406 C 340.390625 219.105469 340.933594 219.242188 341.480469 219.351562 C 342.03125 219.460938 342.582031 219.546875 343.140625 219.601562 C 343.695312 219.65625 344.253906 219.683594 344.816406 219.6875 L 498.675781 219.6875 C 499.234375 219.683594 499.792969 219.65625 500.351562 219.601562 C 500.90625 219.546875 501.460938 219.464844 502.007812 219.355469 C 502.558594 219.246094 503.101562 219.109375 503.636719 218.945312 C 504.171875 218.78125 504.699219 218.59375 505.214844 218.378906 C 505.734375 218.164062 506.238281 217.925781 506.730469 217.660156 C 507.226562 217.398438 507.707031 217.109375 508.171875 216.796875 C 508.636719 216.488281 509.085938 216.152344 509.519531 215.796875 C 509.949219 215.441406 510.363281 215.066406 510.761719 214.671875 C 511.15625 214.277344 511.53125 213.863281 511.886719 213.429688 C 512.242188 212.996094 512.578125 212.546875 512.886719 212.082031 C 513.199219 211.617188 513.484375 211.136719 513.75 210.640625 C 514.015625 210.148438 514.253906 209.644531 514.46875 209.125 C 514.683594 208.609375 514.871094 208.082031 515.035156 207.546875 C 515.199219 207.011719 515.332031 206.46875 515.445312 205.917969 C 515.554688 205.371094 515.636719 204.816406 515.691406 204.261719 C 515.746094 203.703125 515.773438 203.144531 515.773438 202.585938 L 515.773438 48.726562 C 515.773438 48.164062 515.746094 47.609375 515.691406 47.050781 C 515.632812 46.492188 515.550781 45.941406 515.441406 45.390625 C 515.332031 44.84375 515.195312 44.300781 515.03125 43.765625 C 514.867188 43.230469 514.679688 42.703125 514.464844 42.1875 C 514.25 41.671875 514.011719 41.164062 513.746094 40.671875 C 513.484375 40.179688 513.195312 39.699219 512.882812 39.234375 C 512.574219 38.769531 512.238281 38.320312 511.882812 37.886719 C 511.527344 37.457031 511.152344 37.042969 510.757812 36.644531 C 510.359375 36.25 509.945312 35.875 509.515625 35.519531 C 509.082031 35.164062 508.632812 34.832031 508.167969 34.519531 C 507.703125 34.210938 507.222656 33.921875 506.730469 33.660156 C 506.234375 33.394531 505.730469 33.15625 505.214844 32.941406 C 504.695312 32.726562 504.167969 32.539062 503.632812 32.375 C 503.097656 32.210938 502.554688 32.074219 502.007812 31.964844 C 501.457031 31.855469 500.90625 31.773438 500.347656 31.71875 C 499.792969 31.664062 499.234375 31.636719 498.675781 31.636719 Z M 344.816406 31.636719 " fill-opacity="1" fill-rule="nonzero"/></g><g clip-path="url(#8abce2650b)"><g clip-path="url(#b455b41990)"><path fill="#f7f2eb" d="M 30.804688 26.199219 L 221.871094 26.199219 L 221.871094 225.476562 L 30.804688 225.476562 Z M 30.804688 26.199219 " fill-opacity="1" fill-rule="nonzero"/></g></g><g clip-path="url(#4b53addd82)"><path fill="#4d4d4d" d="M 203.261719 225.121094 L 49.402344 225.121094 C 48.664062 225.121094 47.929688 225.082031 47.195312 225.011719 C 46.460938 224.9375 45.730469 224.828125 45.007812 224.683594 C 44.285156 224.539062 43.570312 224.359375 42.867188 224.144531 C 42.160156 223.929688 41.464844 223.679688 40.785156 223.398438 C 40.101562 223.113281 39.4375 222.800781 38.789062 222.449219 C 38.136719 222.101562 37.503906 221.722656 36.890625 221.3125 C 36.277344 220.902344 35.6875 220.464844 35.117188 219.996094 C 34.546875 219.527344 34 219.03125 33.480469 218.511719 C 32.957031 217.988281 32.464844 217.441406 31.996094 216.871094 C 31.527344 216.300781 31.089844 215.710938 30.679688 215.097656 C 30.269531 214.484375 29.890625 213.851562 29.542969 213.203125 C 29.195312 212.550781 28.878906 211.886719 28.597656 211.203125 C 28.3125 210.523438 28.066406 209.828125 27.851562 209.121094 C 27.636719 208.417969 27.457031 207.703125 27.3125 206.980469 C 27.167969 206.253906 27.058594 205.527344 26.988281 204.792969 C 26.914062 204.058594 26.878906 203.324219 26.878906 202.585938 L 26.878906 48.726562 C 26.878906 47.988281 26.914062 47.253906 26.988281 46.519531 C 27.0625 45.785156 27.171875 45.054688 27.316406 44.332031 C 27.460938 43.609375 27.640625 42.894531 27.855469 42.191406 C 28.070312 41.484375 28.316406 40.792969 28.601562 40.109375 C 28.882812 39.429688 29.199219 38.761719 29.546875 38.113281 C 29.894531 37.460938 30.273438 36.832031 30.683594 36.21875 C 31.09375 35.605469 31.53125 35.011719 32 34.445312 C 32.46875 33.875 32.960938 33.328125 33.484375 32.804688 C 34.003906 32.285156 34.550781 31.789062 35.121094 31.320312 C 35.691406 30.855469 36.28125 30.414062 36.894531 30.003906 C 37.507812 29.59375 38.140625 29.214844 38.789062 28.867188 C 39.441406 28.519531 40.105469 28.207031 40.789062 27.921875 C 41.46875 27.640625 42.160156 27.390625 42.867188 27.175781 C 43.574219 26.960938 44.289062 26.78125 45.011719 26.636719 C 45.734375 26.492188 46.460938 26.382812 47.195312 26.3125 C 47.929688 26.238281 48.664062 26.199219 49.402344 26.199219 L 203.261719 26.199219 C 204 26.199219 204.734375 26.238281 205.46875 26.308594 C 206.203125 26.382812 206.933594 26.492188 207.65625 26.636719 C 208.378906 26.78125 209.09375 26.960938 209.800781 27.175781 C 210.503906 27.386719 211.199219 27.636719 211.882812 27.917969 C 212.5625 28.203125 213.226562 28.515625 213.878906 28.863281 C 214.53125 29.214844 215.160156 29.59375 215.773438 30 C 216.386719 30.410156 216.980469 30.851562 217.550781 31.320312 C 218.121094 31.785156 218.667969 32.28125 219.1875 32.800781 C 219.710938 33.324219 220.203125 33.871094 220.671875 34.441406 C 221.140625 35.011719 221.582031 35.601562 221.992188 36.214844 C 222.402344 36.828125 222.78125 37.460938 223.128906 38.109375 C 223.476562 38.761719 223.792969 39.425781 224.074219 40.109375 C 224.359375 40.789062 224.605469 41.480469 224.820312 42.1875 C 225.035156 42.894531 225.214844 43.609375 225.359375 44.332031 C 225.503906 45.054688 225.613281 45.785156 225.6875 46.519531 C 225.761719 47.25 225.796875 47.988281 225.796875 48.726562 L 225.796875 202.585938 C 225.796875 203.324219 225.761719 204.058594 225.6875 204.792969 C 225.613281 205.527344 225.507812 206.257812 225.363281 206.980469 C 225.21875 207.703125 225.039062 208.417969 224.824219 209.125 C 224.609375 209.832031 224.359375 210.523438 224.078125 211.207031 C 223.796875 211.886719 223.480469 212.554688 223.132812 213.203125 C 222.785156 213.855469 222.40625 214.488281 221.996094 215.101562 C 221.585938 215.714844 221.144531 216.304688 220.675781 216.875 C 220.207031 217.445312 219.714844 217.992188 219.191406 218.515625 C 218.671875 219.035156 218.125 219.53125 217.554688 220 C 216.984375 220.46875 216.390625 220.90625 215.777344 221.316406 C 215.164062 221.726562 214.53125 222.105469 213.882812 222.453125 C 213.230469 222.800781 212.566406 223.117188 211.882812 223.402344 C 211.203125 223.683594 210.507812 223.933594 209.800781 224.144531 C 209.097656 224.359375 208.382812 224.539062 207.65625 224.683594 C 206.933594 224.828125 206.203125 224.9375 205.46875 225.011719 C 204.734375 225.082031 204 225.121094 203.261719 225.121094 Z M 49.402344 31.636719 C 48.84375 31.636719 48.285156 31.664062 47.730469 31.71875 C 47.171875 31.777344 46.621094 31.859375 46.070312 31.96875 C 45.523438 32.078125 44.980469 32.214844 44.445312 32.378906 C 43.910156 32.539062 43.382812 32.730469 42.867188 32.945312 C 42.351562 33.160156 41.84375 33.398438 41.351562 33.660156 C 40.859375 33.925781 40.378906 34.214844 39.914062 34.523438 C 39.449219 34.835938 39 35.167969 38.570312 35.523438 C 38.136719 35.878906 37.722656 36.253906 37.328125 36.648438 C 36.929688 37.046875 36.554688 37.460938 36.199219 37.890625 C 35.847656 38.324219 35.511719 38.773438 35.203125 39.238281 C 34.890625 39.703125 34.601562 40.183594 34.339844 40.675781 C 34.074219 41.167969 33.835938 41.671875 33.621094 42.191406 C 33.40625 42.707031 33.21875 43.234375 33.054688 43.769531 C 32.890625 44.304688 32.753906 44.84375 32.644531 45.394531 C 32.535156 45.941406 32.453125 46.496094 32.398438 47.050781 C 32.339844 47.609375 32.3125 48.164062 32.3125 48.726562 L 32.3125 202.585938 C 32.3125 203.144531 32.339844 203.703125 32.394531 204.261719 C 32.453125 204.816406 32.535156 205.371094 32.644531 205.917969 C 32.753906 206.46875 32.890625 207.007812 33.050781 207.546875 C 33.214844 208.082031 33.402344 208.605469 33.617188 209.125 C 33.832031 209.640625 34.070312 210.144531 34.335938 210.640625 C 34.601562 211.132812 34.886719 211.613281 35.199219 212.078125 C 35.507812 212.542969 35.84375 212.992188 36.195312 213.425781 C 36.550781 213.859375 36.925781 214.273438 37.324219 214.667969 C 37.71875 215.0625 38.132812 215.4375 38.566406 215.792969 C 38.996094 216.148438 39.445312 216.484375 39.910156 216.792969 C 40.375 217.105469 40.855469 217.394531 41.347656 217.65625 C 41.84375 217.921875 42.347656 218.160156 42.863281 218.375 C 43.382812 218.589844 43.90625 218.78125 44.441406 218.941406 C 44.976562 219.105469 45.519531 219.242188 46.070312 219.351562 C 46.617188 219.460938 47.171875 219.546875 47.726562 219.601562 C 48.285156 219.65625 48.84375 219.683594 49.402344 219.6875 L 203.261719 219.6875 C 203.820312 219.683594 204.378906 219.65625 204.9375 219.601562 C 205.496094 219.546875 206.046875 219.464844 206.597656 219.355469 C 207.144531 219.246094 207.6875 219.109375 208.222656 218.945312 C 208.761719 218.78125 209.285156 218.59375 209.804688 218.378906 C 210.320312 218.164062 210.824219 217.925781 211.320312 217.660156 C 211.8125 217.398438 212.292969 217.109375 212.757812 216.796875 C 213.222656 216.488281 213.671875 216.152344 214.105469 215.796875 C 214.539062 215.441406 214.953125 215.066406 215.347656 214.671875 C 215.746094 214.277344 216.121094 213.863281 216.476562 213.429688 C 216.832031 212.996094 217.164062 212.546875 217.476562 212.082031 C 217.785156 211.617188 218.074219 211.136719 218.339844 210.640625 C 218.601562 210.148438 218.84375 209.644531 219.054688 209.125 C 219.269531 208.609375 219.460938 208.082031 219.621094 207.546875 C 219.785156 207.011719 219.921875 206.46875 220.03125 205.917969 C 220.140625 205.371094 220.222656 204.816406 220.277344 204.261719 C 220.335938 203.703125 220.363281 203.144531 220.363281 202.585938 L 220.363281 48.726562 C 220.363281 48.164062 220.335938 47.609375 220.277344 47.050781 C 220.222656 46.492188 220.140625 45.941406 220.03125 45.390625 C 219.917969 44.84375 219.785156 44.300781 219.621094 43.765625 C 219.457031 43.230469 219.269531 42.703125 219.054688 42.1875 C 218.839844 41.671875 218.597656 41.164062 218.335938 40.671875 C 218.070312 40.179688 217.78125 39.699219 217.472656 39.234375 C 217.160156 38.769531 216.828125 38.320312 216.472656 37.886719 C 216.117188 37.457031 215.742188 37.042969 215.34375 36.644531 C 214.949219 36.25 214.535156 35.875 214.101562 35.519531 C 213.667969 35.164062 213.21875 34.832031 212.753906 34.519531 C 212.289062 34.210938 211.808594 33.921875 211.316406 33.660156 C 210.824219 33.394531 210.316406 33.15625 209.800781 32.941406 C 209.285156 32.726562 208.757812 32.539062 208.222656 32.375 C 207.6875 32.210938 207.144531 32.074219 206.597656 31.964844 C 206.046875 31.855469 205.492188 31.773438 204.9375 31.71875 C 204.378906 31.664062 203.820312 31.636719 203.261719 31.636719 Z M 49.402344 31.636719 " fill-opacity="1" fill-rule="nonzero"/></g><g clip-path="url(#5fe1a8f367)"><g clip-path="url(#6d5e6015c2)"><path fill="#081f5c" d="M 621.480469 26.199219 L 812.546875 26.199219 L 812.546875 225.476562 L 621.480469 225.476562 Z M 621.480469 26.199219 " fill-opacity="1" fill-rule="nonzero"/></g></g><g clip-path="url(#54716c0b67)"><path fill="#4d4d4d" d="M 794.160156 225.121094 L 640.300781 225.121094 C 639.566406 225.121094 638.828125 225.082031 638.09375 225.011719 C 637.359375 224.9375 636.632812 224.828125 635.910156 224.683594 C 635.183594 224.539062 634.472656 224.359375 633.765625 224.144531 C 633.058594 223.929688 632.367188 223.679688 631.683594 223.398438 C 631.003906 223.113281 630.335938 222.800781 629.6875 222.449219 C 629.035156 222.101562 628.40625 221.722656 627.792969 221.3125 C 627.179688 220.902344 626.585938 220.464844 626.015625 219.996094 C 625.445312 219.527344 624.902344 219.03125 624.378906 218.511719 C 623.859375 217.988281 623.363281 217.441406 622.894531 216.871094 C 622.425781 216.300781 621.988281 215.710938 621.578125 215.097656 C 621.167969 214.484375 620.789062 213.851562 620.441406 213.203125 C 620.09375 212.550781 619.777344 211.886719 619.496094 211.203125 C 619.214844 210.523438 618.964844 209.828125 618.75 209.121094 C 618.535156 208.417969 618.355469 207.703125 618.214844 206.980469 C 618.070312 206.253906 617.960938 205.527344 617.886719 204.792969 C 617.8125 204.058594 617.777344 203.324219 617.777344 202.585938 L 617.777344 48.726562 C 617.777344 47.988281 617.816406 47.253906 617.886719 46.519531 C 617.960938 45.785156 618.070312 45.054688 618.214844 44.332031 C 618.359375 43.609375 618.539062 42.894531 618.753906 42.191406 C 618.96875 41.484375 619.21875 40.792969 619.5 40.109375 C 619.78125 39.429688 620.097656 38.761719 620.445312 38.113281 C 620.792969 37.460938 621.171875 36.832031 621.582031 36.21875 C 621.992188 35.605469 622.429688 35.011719 622.898438 34.445312 C 623.367188 33.875 623.863281 33.328125 624.382812 32.804688 C 624.90625 32.285156 625.449219 31.789062 626.019531 31.320312 C 626.589844 30.855469 627.183594 30.414062 627.796875 30.003906 C 628.40625 29.59375 629.039062 29.214844 629.691406 28.867188 C 630.339844 28.519531 631.007812 28.207031 631.6875 27.921875 C 632.367188 27.640625 633.0625 27.390625 633.765625 27.175781 C 634.472656 26.960938 635.1875 26.78125 635.910156 26.636719 C 636.632812 26.492188 637.363281 26.382812 638.09375 26.3125 C 638.828125 26.238281 639.566406 26.199219 640.300781 26.199219 L 794.160156 26.199219 C 794.898438 26.199219 795.636719 26.238281 796.371094 26.308594 C 797.105469 26.382812 797.832031 26.492188 798.554688 26.636719 C 799.277344 26.78125 799.992188 26.960938 800.699219 27.175781 C 801.40625 27.386719 802.097656 27.636719 802.78125 27.917969 C 803.460938 28.203125 804.128906 28.515625 804.777344 28.863281 C 805.429688 29.214844 806.0625 29.59375 806.675781 30 C 807.289062 30.410156 807.878906 30.851562 808.449219 31.320312 C 809.019531 31.785156 809.566406 32.28125 810.089844 32.800781 C 810.609375 33.324219 811.105469 33.871094 811.574219 34.441406 C 812.042969 35.011719 812.480469 35.601562 812.890625 36.214844 C 813.300781 36.828125 813.679688 37.460938 814.027344 38.109375 C 814.375 38.761719 814.691406 39.425781 814.972656 40.109375 C 815.257812 40.789062 815.507812 41.480469 815.722656 42.1875 C 815.9375 42.894531 816.117188 43.609375 816.261719 44.332031 C 816.40625 45.054688 816.511719 45.785156 816.585938 46.519531 C 816.660156 47.25 816.695312 47.988281 816.699219 48.726562 L 816.699219 202.585938 C 816.699219 203.324219 816.660156 204.058594 816.585938 204.792969 C 816.515625 205.527344 816.40625 206.257812 816.261719 206.980469 C 816.117188 207.703125 815.9375 208.417969 815.722656 209.125 C 815.507812 209.832031 815.261719 210.523438 814.976562 211.207031 C 814.695312 211.886719 814.378906 212.554688 814.03125 213.203125 C 813.683594 213.855469 813.304688 214.488281 812.894531 215.101562 C 812.484375 215.714844 812.042969 216.304688 811.578125 216.875 C 811.109375 217.445312 810.613281 217.992188 810.089844 218.515625 C 809.570312 219.035156 809.023438 219.53125 808.453125 220 C 807.882812 220.46875 807.292969 220.90625 806.679688 221.316406 C 806.0625 221.726562 805.433594 222.105469 804.78125 222.453125 C 804.132812 222.800781 803.464844 223.117188 802.78125 223.402344 C 802.101562 223.683594 801.40625 223.933594 800.703125 224.144531 C 799.996094 224.359375 799.28125 224.539062 798.558594 224.683594 C 797.832031 224.828125 797.105469 224.9375 796.371094 225.011719 C 795.636719 225.082031 794.898438 225.121094 794.160156 225.121094 Z M 640.300781 31.636719 C 639.742188 31.636719 639.183594 31.664062 638.628906 31.71875 C 638.070312 31.777344 637.519531 31.859375 636.96875 31.96875 C 636.421875 32.078125 635.878906 32.214844 635.34375 32.378906 C 634.808594 32.539062 634.285156 32.730469 633.765625 32.945312 C 633.25 33.160156 632.746094 33.398438 632.253906 33.660156 C 631.757812 33.925781 631.28125 34.214844 630.816406 34.523438 C 630.347656 34.835938 629.902344 35.167969 629.46875 35.523438 C 629.035156 35.878906 628.621094 36.253906 628.226562 36.648438 C 627.832031 37.046875 627.457031 37.460938 627.101562 37.890625 C 626.746094 38.324219 626.414062 38.773438 626.101562 39.238281 C 625.789062 39.703125 625.503906 40.183594 625.238281 40.675781 C 624.976562 41.167969 624.734375 41.671875 624.519531 42.191406 C 624.304688 42.707031 624.117188 43.234375 623.953125 43.769531 C 623.792969 44.304688 623.65625 44.84375 623.546875 45.394531 C 623.4375 45.941406 623.351562 46.496094 623.296875 47.050781 C 623.242188 47.609375 623.214844 48.164062 623.210938 48.726562 L 623.210938 202.585938 C 623.210938 203.144531 623.242188 203.703125 623.296875 204.261719 C 623.351562 204.816406 623.433594 205.371094 623.542969 205.917969 C 623.652344 206.46875 623.789062 207.007812 623.953125 207.546875 C 624.113281 208.082031 624.304688 208.605469 624.519531 209.125 C 624.730469 209.640625 624.972656 210.144531 625.234375 210.640625 C 625.5 211.132812 625.785156 211.613281 626.097656 212.078125 C 626.410156 212.542969 626.742188 212.992188 627.097656 213.425781 C 627.453125 213.859375 627.828125 214.273438 628.222656 214.667969 C 628.617188 215.0625 629.03125 215.4375 629.464844 215.792969 C 629.898438 216.148438 630.347656 216.484375 630.8125 216.792969 C 631.277344 217.105469 631.753906 217.394531 632.25 217.65625 C 632.742188 217.921875 633.246094 218.160156 633.765625 218.375 C 634.28125 218.589844 634.808594 218.78125 635.34375 218.941406 C 635.878906 219.105469 636.421875 219.242188 636.96875 219.351562 C 637.519531 219.460938 638.070312 219.546875 638.628906 219.601562 C 639.183594 219.65625 639.742188 219.683594 640.300781 219.6875 L 794.160156 219.6875 C 794.722656 219.683594 795.28125 219.65625 795.835938 219.601562 C 796.394531 219.546875 796.949219 219.464844 797.496094 219.355469 C 798.046875 219.246094 798.589844 219.109375 799.125 218.945312 C 799.660156 218.78125 800.1875 218.59375 800.703125 218.378906 C 801.21875 218.164062 801.726562 217.925781 802.21875 217.660156 C 802.714844 217.398438 803.191406 217.109375 803.660156 216.796875 C 804.125 216.488281 804.574219 216.152344 805.003906 215.796875 C 805.4375 215.441406 805.851562 215.066406 806.25 214.671875 C 806.644531 214.277344 807.019531 213.863281 807.375 213.429688 C 807.730469 212.996094 808.0625 212.546875 808.375 212.082031 C 808.6875 211.617188 808.972656 211.136719 809.238281 210.640625 C 809.503906 210.148438 809.742188 209.644531 809.957031 209.125 C 810.171875 208.609375 810.359375 208.082031 810.523438 207.546875 C 810.683594 207.011719 810.820312 206.46875 810.929688 205.917969 C 811.039062 205.371094 811.125 204.816406 811.179688 204.261719 C 811.234375 203.703125 811.261719 203.144531 811.261719 202.585938 L 811.261719 48.726562 C 811.261719 48.164062 811.234375 47.609375 811.179688 47.050781 C 811.121094 46.492188 811.039062 45.941406 810.929688 45.390625 C 810.820312 44.84375 810.683594 44.300781 810.519531 43.765625 C 810.355469 43.230469 810.167969 42.703125 809.953125 42.1875 C 809.738281 41.671875 809.5 41.164062 809.234375 40.671875 C 808.96875 40.179688 808.683594 39.699219 808.371094 39.234375 C 808.058594 38.769531 807.726562 38.320312 807.371094 37.886719 C 807.015625 37.457031 806.640625 37.042969 806.246094 36.644531 C 805.847656 36.25 805.433594 35.875 805.003906 35.519531 C 804.570312 35.164062 804.121094 34.832031 803.65625 34.519531 C 803.191406 34.210938 802.710938 33.921875 802.214844 33.660156 C 801.722656 33.394531 801.21875 33.15625 800.699219 32.941406 C 800.183594 32.726562 799.65625 32.539062 799.121094 32.375 C 798.585938 32.210938 798.042969 32.074219 797.496094 31.964844 C 796.945312 31.855469 796.394531 31.773438 795.835938 31.71875 C 795.28125 31.664062 794.722656 31.636719 794.160156 31.636719 Z M 640.300781 31.636719 " fill-opacity="1" fill-rule="nonzero"/></g></svg>